<svg id="svg" version="1.1" width="400" height="222" xmlns="http://www.w3.org/2000/svg" xmlns:xlink="http://www.w3.org/1999/xlink" style="display: block;"><g id="svgg"><path id="path0" d="M15.000 11.986 C 3.932 12.307,4.694 11.178,4.871 27.000 C 5.068 44.700,8.776 49.611,23.468 51.631 C 25.191 51.868,27.172 52.144,27.871 52.244 L 29.141 52.425 29.271 60.513 C 29.462 72.461,31.578 75.934,39.809 77.803 C 41.344 78.152,42.960 78.525,43.400 78.633 C 43.840 78.741,43.661 78.531,43.000 78.166 C 38.803 75.846,38.623 75.239,38.471 62.900 L 38.341 52.400 45.071 52.391 C 58.202 52.374,58.379 52.079,58.391 30.189 C 58.401 12.878,58.460 13.286,55.761 12.158 C 54.365 11.575,32.385 11.482,15.000 11.986 M26.770 22.303 C 29.118 24.022,29.199 24.574,29.199 38.900 C 29.200 46.105,29.058 52.000,28.884 52.000 C 24.528 52.000,18.389 47.921,16.178 43.556 C 13.064 37.412,13.101 24.972,16.241 22.366 C 17.863 21.020,24.960 20.977,26.770 22.303 M47.395 22.467 C 49.320 23.982,49.600 25.315,49.600 32.961 C 49.600 43.433,49.002 44.400,42.525 44.400 L 38.400 44.400 38.400 35.187 C 38.400 25.153,38.591 24.052,40.605 22.467 C 42.161 21.243,45.839 21.243,47.395 22.467 M188.800 51.600 L 188.800 70.400 192.800 70.400 L 196.800 70.400 196.800 51.600 L 196.800 32.800 192.800 32.800 L 188.800 32.800 188.800 51.600 M243.217 39.647 C 226.993 42.399,225.598 64.358,241.336 69.271 C 247.077 71.063,252.443 69.689,257.466 65.140 L 259.532 63.269 257.230 61.094 L 254.929 58.918 252.924 60.830 C 250.221 63.409,247.279 64.324,244.031 63.597 L 241.800 63.097 250.600 54.581 L 259.400 46.065 258.200 44.778 C 254.465 40.772,248.541 38.744,243.217 39.647 M287.353 39.558 C 281.080 41.163,278.400 45.013,278.400 52.420 L 278.400 55.600 282.541 55.600 L 286.681 55.600 286.920 52.221 C 287.290 46.973,288.653 45.192,292.286 45.209 C 295.856 45.225,297.782 48.140,296.220 51.162 C 295.706 52.154,283.268 67.660,279.182 72.400 C 277.820 73.980,277.629 74.453,277.615 76.267 C 277.589 79.886,276.436 79.600,291.043 79.600 L 304.000 79.600 304.000 77.008 L 304.000 74.416 295.567 74.308 L 287.134 74.200 290.813 69.600 C 295.020 64.341,296.762 62.210,298.937 59.665 C 305.917 51.496,306.592 47.387,301.730 42.663 C 298.694 39.712,292.219 38.314,287.353 39.558 M347.000 42.944 L 343.000 45.854 342.886 49.950 L 342.772 54.046 346.986 50.792 L 351.200 47.539 351.200 63.570 L 351.200 79.600 355.600 79.600 L 360.000 79.600 360.000 59.800 L 360.000 40.000 355.500 40.017 L 351.000 40.034 347.000 42.944 M366.400 43.000 L 366.400 46.000 374.400 46.000 C 378.800 46.000,382.400 46.089,382.400 46.197 C 382.400 46.305,378.710 53.781,374.200 62.810 C 369.690 71.839,366.000 79.310,366.000 79.413 C 366.000 79.516,368.115 79.593,370.700 79.585 L 375.400 79.569 376.487 77.285 C 377.085 76.028,379.581 70.860,382.032 65.800 C 392.635 43.917,392.000 45.396,392.000 42.568 L 392.000 40.000 379.200 40.000 L 366.400 40.000 366.400 43.000 M129.200 44.152 L 129.200 48.000 136.500 48.001 C 146.440 48.001,147.447 48.549,147.901 54.203 C 148.407 60.511,147.348 61.200,137.146 61.200 L 129.200 61.200 129.200 70.200 L 129.200 79.200 133.200 79.200 L 137.200 79.200 137.200 74.261 L 137.200 69.322 141.700 69.061 C 152.301 68.446,154.600 65.904,154.600 54.800 C 154.600 42.586,152.478 40.765,137.900 40.476 L 129.200 40.303 129.200 44.152 M206.832 41.057 C 200.156 43.394,197.467 48.742,199.911 54.825 C 200.563 56.447,202.954 58.272,205.334 58.964 C 208.246 59.810,207.903 59.975,210.462 56.495 L 212.725 53.419 210.962 52.971 C 207.566 52.109,206.747 50.391,208.769 48.369 L 209.938 47.200 218.169 47.200 L 226.400 47.200 226.400 43.800 L 226.400 40.400 217.500 40.419 C 210.534 40.434,208.216 40.573,206.832 41.057 M90.000 41.372 C 87.404 42.095,85.184 43.335,83.745 44.865 C 81.247 47.522,81.200 47.777,81.200 58.780 L 81.200 68.800 85.400 68.800 L 89.600 68.800 89.600 59.606 L 89.600 50.413 90.754 49.121 C 92.238 47.460,95.948 47.210,97.869 48.643 L 99.000 49.486 99.107 59.143 L 99.214 68.800 103.607 68.800 L 108.000 68.800 108.000 58.987 C 108.000 48.310,107.838 47.337,105.679 45.064 C 102.274 41.480,95.416 39.865,90.000 41.372 M109.600 41.249 C 105.166 42.441,104.735 42.940,106.586 44.738 C 107.343 45.474,108.264 46.864,108.632 47.827 L 109.301 49.579 110.291 48.800 C 112.457 47.096,116.383 47.435,117.979 49.464 C 118.753 50.448,118.800 51.034,118.800 59.654 L 118.800 68.800 123.236 68.800 L 127.672 68.800 127.529 58.900 C 127.371 47.878,127.236 47.273,124.335 44.545 C 121.006 41.415,114.442 39.947,109.600 41.249 M156.809 51.500 C 156.819 63.825,156.914 64.256,160.246 67.131 C 165.739 71.871,178.731 71.623,183.949 66.678 C 186.655 64.113,186.781 63.439,186.791 51.486 L 186.800 40.773 182.500 40.886 L 178.200 41.000 178.093 51.236 L 177.987 61.473 176.961 62.436 C 175.401 63.902,168.194 63.898,166.632 62.430 L 165.600 61.461 165.600 51.130 L 165.600 40.800 161.200 40.800 L 156.800 40.800 156.809 51.500 M249.657 46.297 C 249.924 46.564,249.692 46.984,248.963 47.558 C 248.361 48.031,245.522 50.697,242.653 53.482 L 237.437 58.546 236.937 57.373 C 234.543 51.763,239.877 45.281,246.529 45.718 C 248.029 45.817,249.437 46.077,249.657 46.297 M74.100 48.668 L 70.400 50.874 70.400 59.837 L 70.400 68.800 74.400 68.800 L 78.400 68.800 78.400 57.600 C 78.400 51.440,78.265 46.414,78.100 46.431 C 77.935 46.449,76.135 47.455,74.100 48.668 M215.943 53.467 L 213.698 56.596 215.834 57.023 C 219.168 57.688,220.386 59.383,219.168 61.660 C 218.281 63.317,216.566 63.600,207.413 63.600 L 198.800 63.600 198.800 67.000 L 198.800 70.400 208.158 70.400 C 216.499 70.400,217.808 70.310,220.204 69.570 C 231.105 66.203,230.889 52.242,219.909 50.596 L 218.188 50.337 215.943 53.467 M70.400 77.800 L 70.400 79.200 98.200 79.200 L 126.000 79.200 126.000 77.800 L 126.000 76.400 98.200 76.400 L 70.400 76.400 70.400 77.800 M140.000 77.800 L 140.000 79.200 200.000 79.200 L 260.000 79.200 260.000 77.800 L 260.000 76.400 200.000 76.400 L 140.000 76.400 140.000 77.800 " stroke="none" fill="#e1e1e1" fill-rule="evenodd"></path><path id="path1" d="M11.662 0.814 C 7.310 2.235,4.800 5.923,4.800 10.896 L 4.800 13.938 5.969 12.769 C 7.107 11.632,7.248 11.600,11.169 11.600 C 15.155 11.600,15.674 11.433,14.700 10.462 C 14.379 10.142,14.128 8.202,14.000 5.039 L 13.800 0.116 11.662 0.814 M309.200 58.800 L 309.200 79.600 313.600 79.600 L 318.000 79.600 318.013 75.100 L 318.025 70.600 319.061 71.800 C 319.631 72.460,321.381 74.484,322.949 76.299 L 325.800 79.598 331.158 79.599 L 336.516 79.600 334.374 77.300 C 333.196 76.035,329.739 72.414,326.691 69.253 L 321.149 63.506 322.075 62.519 C 322.584 61.977,326.020 58.803,329.711 55.466 L 336.423 49.400 331.131 49.288 L 325.839 49.176 321.919 53.080 L 318.000 56.985 318.000 47.492 L 318.000 38.000 313.600 38.000 L 309.200 38.000 309.200 58.800 M70.400 45.023 L 70.400 49.245 72.100 48.213 C 73.035 47.645,74.835 46.603,76.100 45.898 C 78.399 44.616,78.400 44.615,78.400 42.708 L 78.400 40.800 74.400 40.800 L 70.400 40.800 70.400 45.023 " stroke="none" fill="#f64000" fill-rule="evenodd"></path></g></svg>