<svg id="svg" version="1.1" width="470" height="400" xmlns="http://www.w3.org/2000/svg" xmlns:xlink="http://www.w3.org/1999/xlink" style="display: block;"><g id="svgg"><path id="path0" d="M60.400 66.400 C 41.174 66.545,31.403 66.760,30.589 67.055 C 24.853 69.132,20.913 73.196,19.154 78.850 C 18.129 82.141,17.993 158.835,18.999 165.909 C 21.317 182.219,31.276 198.293,45.283 208.333 C 59.293 218.376,90.911 227.198,112.900 227.200 L 116.400 227.200 116.400 256.548 C 116.400 288.802,116.441 289.469,118.854 296.600 C 124.367 312.891,136.923 324.423,153.906 328.794 C 157.490 329.717,173.543 333.202,174.174 333.195 C 174.408 333.192,173.216 332.586,171.524 331.847 C 161.568 327.500,154.513 318.537,153.228 308.600 C 152.416 302.324,152.000 284.800,152.000 256.825 L 152.000 228.433 177.900 228.305 C 203.272 228.180,203.863 228.160,206.876 227.290 C 222.533 222.769,231.353 211.446,232.805 194.000 C 233.330 187.684,233.309 85.066,232.781 81.400 C 231.765 74.342,227.110 68.858,220.350 66.754 C 217.803 65.961,141.143 65.791,60.400 66.400 M102.513 105.194 C 108.068 107.291,113.280 113.650,115.477 121.014 C 116.141 123.239,116.197 126.892,116.305 175.160 L 116.420 226.919 113.510 226.660 C 84.717 224.098,61.342 201.725,56.195 171.800 C 55.261 166.366,55.275 125.376,56.213 121.300 C 57.706 114.814,63.012 107.857,68.232 105.543 C 72.309 103.735,97.954 103.474,102.513 105.194 M185.200 105.548 C 190.130 108.146,194.499 113.612,196.717 119.960 C 198.335 124.588,197.743 178.814,196.026 183.294 C 194.065 188.411,189.266 194.064,185.307 195.919 L 183.000 197.000 167.486 197.113 L 151.973 197.227 152.093 159.913 C 152.206 124.884,152.258 122.465,152.952 120.400 C 155.311 113.371,160.380 107.204,165.463 105.179 C 168.592 103.932,182.631 104.195,185.200 105.548 M308.400 302.400 L 308.400 324.400 312.800 324.400 L 317.200 324.400 317.200 302.400 L 317.200 280.400 312.800 280.400 L 308.400 280.400 308.400 302.400 M367.119 289.172 C 353.386 293.563,350.068 311.147,361.293 320.040 C 368.369 325.646,377.743 325.069,384.732 318.599 L 387.248 316.270 384.750 313.749 L 382.252 311.229 380.383 312.977 C 377.206 315.949,374.050 317.140,370.697 316.633 C 367.220 316.107,367.057 316.364,377.517 305.890 L 387.234 296.160 384.709 293.735 C 379.654 288.881,373.236 287.216,367.119 289.172 M330.848 289.651 C 318.091 291.770,315.462 307.918,327.338 311.211 L 329.937 311.932 332.525 308.205 L 335.112 304.478 333.384 304.219 C 330.280 303.753,328.860 301.971,329.804 299.725 C 330.745 297.487,332.105 297.200,341.760 297.200 L 350.400 297.200 350.400 293.200 L 350.400 289.200 341.700 289.247 C 336.915 289.272,332.032 289.454,330.848 289.651 M242.000 293.932 L 242.000 298.356 250.572 298.478 C 261.643 298.636,262.399 299.086,262.731 305.728 C 263.099 313.088,262.113 313.760,250.700 313.928 L 242.000 314.056 242.000 324.428 L 242.000 334.800 246.400 334.800 L 250.800 334.800 250.800 328.852 L 250.800 322.904 256.100 322.716 C 267.075 322.327,270.048 319.107,270.328 307.307 C 270.677 292.578,267.955 290.032,251.500 289.700 L 242.000 289.508 242.000 293.932 M198.820 290.410 C 194.670 291.286,190.521 294.416,188.931 297.873 C 188.324 299.191,188.208 300.975,188.086 310.900 L 187.945 322.400 192.973 322.400 L 198.000 322.400 198.000 311.400 C 198.000 298.411,198.161 298.000,203.239 298.000 C 208.396 298.000,208.800 299.014,208.800 311.980 L 208.800 322.400 213.622 322.400 L 218.444 322.400 218.322 310.700 C 218.182 297.271,218.183 297.278,214.401 293.876 C 210.907 290.736,204.272 289.259,198.820 290.410 M220.508 290.422 C 218.628 290.793,215.200 292.210,215.200 292.616 C 215.200 292.760,215.911 293.685,216.780 294.672 C 217.648 295.659,218.656 297.244,219.019 298.194 L 219.679 299.922 221.140 298.925 C 223.258 297.479,227.036 297.710,228.793 299.393 L 230.000 300.550 230.000 311.475 L 230.000 322.400 235.036 322.400 L 240.073 322.400 239.936 310.900 L 239.800 299.400 238.612 297.254 C 235.528 291.688,228.168 288.910,220.508 290.422 M272.474 302.500 C 272.619 316.873,272.688 317.187,276.465 320.583 C 282.390 325.910,296.550 325.837,302.514 320.450 C 305.905 317.386,306.000 316.901,306.000 302.613 L 306.000 290.000 301.200 290.000 L 296.400 290.000 296.400 301.925 C 296.400 316.738,296.569 316.400,289.154 316.400 C 282.288 316.400,282.400 316.641,282.400 301.826 L 282.400 290.000 277.374 290.000 L 272.349 290.000 272.474 302.500 M375.714 296.118 L 376.828 296.600 369.681 303.712 L 362.534 310.825 362.067 309.266 C 359.607 301.054,368.134 292.838,375.714 296.118 M180.700 299.040 L 176.400 301.654 176.400 312.027 L 176.400 322.400 180.800 322.400 L 185.200 322.400 185.200 309.400 C 185.200 302.250,185.155 296.406,185.100 296.413 C 185.045 296.421,183.065 297.603,180.700 299.040 M338.783 304.623 C 336.002 308.475,336.015 308.278,338.521 308.746 C 342.024 309.400,343.507 311.403,342.328 313.886 C 341.248 316.161,340.015 316.399,329.300 316.399 L 319.600 316.400 319.600 320.433 L 319.600 324.466 330.700 324.316 C 341.095 324.176,341.945 324.109,344.081 323.262 C 354.557 319.106,355.332 305.106,345.258 301.987 C 341.510 300.827,341.530 300.819,338.783 304.623 M176.400 332.800 L 176.400 334.400 207.400 334.400 L 238.400 334.400 238.400 332.800 L 238.400 331.200 207.400 331.200 L 176.400 331.200 176.400 332.800 M254.000 332.800 L 254.000 334.400 320.800 334.400 L 387.600 334.400 387.600 332.800 L 387.600 331.200 320.800 331.200 L 254.000 331.200 254.000 332.800 M238.349 341.705 C 234.518 343.688,233.459 345.628,233.426 350.727 L 233.400 354.600 236.900 354.716 L 240.400 354.831 240.400 352.466 C 240.400 347.356,241.503 345.600,244.711 345.600 C 247.798 345.600,249.221 347.857,248.036 350.874 C 247.836 351.383,244.328 356.120,240.240 361.400 L 232.807 371.000 232.803 373.500 L 232.800 376.000 243.600 376.000 L 254.400 376.000 254.400 373.609 L 254.400 371.218 247.470 371.109 L 240.541 371.000 247.294 362.230 C 254.496 352.878,255.200 351.694,255.200 348.938 C 255.200 341.919,245.761 337.868,238.349 341.705 M290.490 343.500 L 286.849 346.200 286.825 349.749 C 286.805 352.526,286.909 353.216,287.300 352.920 C 287.575 352.712,289.195 351.418,290.900 350.045 L 294.000 347.549 294.000 361.774 L 294.000 376.000 297.600 376.000 L 301.200 376.000 301.200 358.400 L 301.200 340.800 297.665 340.800 L 294.131 340.800 290.490 343.500 M306.800 343.590 L 306.800 346.381 313.391 346.490 L 319.982 346.600 313.191 360.973 C 309.456 368.878,306.400 375.499,306.400 375.687 C 306.400 375.875,308.142 375.977,310.270 375.914 L 314.141 375.800 316.701 370.200 C 318.109 367.120,319.952 363.070,320.797 361.200 C 321.642 359.330,323.609 355.024,325.167 351.631 C 327.648 346.229,328.000 345.172,328.000 343.131 L 328.000 340.800 317.400 340.800 L 306.800 340.800 306.800 343.590 " stroke="none" fill="#dedede" fill-rule="evenodd"></path><path id="path1" d="M48.667 21.023 C 35.525 25.139,27.767 31.553,22.084 43.000 C 18.446 50.326,18.398 50.599,18.419 63.524 L 18.437 75.000 19.454 73.046 C 23.390 65.478,27.876 64.000,46.896 64.000 L 60.083 64.000 58.789 62.526 C 58.077 61.716,57.070 60.141,56.551 59.026 L 55.608 57.000 55.604 38.100 C 55.600 20.351,55.557 19.203,54.900 19.245 C 54.515 19.269,51.710 20.069,48.667 21.023 M176.400 294.846 L 176.400 299.692 177.300 299.113 C 177.795 298.794,179.775 297.576,181.700 296.405 L 185.200 294.276 185.200 292.138 L 185.200 290.000 180.800 290.000 L 176.400 290.000 176.400 294.846 M259.200 357.600 L 259.200 376.000 262.786 376.000 L 266.371 376.000 266.486 372.123 L 266.600 368.245 269.749 372.123 L 272.898 376.000 277.249 376.000 C 279.642 376.000,281.600 375.900,281.600 375.779 C 281.600 375.657,278.737 372.423,275.238 368.592 L 268.876 361.627 275.138 355.513 L 281.400 349.400 277.000 349.280 L 272.600 349.159 269.514 352.480 L 266.428 355.800 266.414 347.500 L 266.400 339.200 262.800 339.200 L 259.200 339.200 259.200 357.600 " stroke="none" fill="#f64000" fill-rule="evenodd"></path></g></svg>